<svg id="visual" viewBox="0 0 900 600" width="900" height="600" xmlns="http://www.w3.org/2000/svg" xmlns:xlink="http://www.w3.org/1999/xlink" version="1.1"><rect x="0" y="0" width="900" height="600" fill="#c5ddf1"></rect><path d="M0 475L13.7 474.7C27.3 474.3 54.7 473.7 82 473C109.3 472.3 136.7 471.7 163.8 477.7C191 483.7 218 496.3 245.2 498.7C272.3 501 299.7 493 327 490.2C354.3 487.3 381.7 489.7 409 490C436.3 490.3 463.7 488.7 491 486.8C518.3 485 545.7 483 573 485.3C600.3 487.7 627.7 494.3 654.8 497.3C682 500.3 709 499.7 736.2 498.2C763.3 496.7 790.7 494.3 818 495.8C845.3 497.3 872.7 502.7 886.3 505.3L900 508L900 601L886.3 601C872.7 601 845.3 601 818 601C790.7 601 763.3 601 736.2 601C709 601 682 601 654.8 601C627.7 601 600.3 601 573 601C545.7 601 518.3 601 491 601C463.7 601 436.3 601 409 601C381.7 601 354.3 601 327 601C299.7 601 272.3 601 245.2 601C218 601 191 601 163.8 601C136.7 601 109.3 601 82 601C54.7 601 27.3 601 13.7 601L0 601Z" fill="#4facf7"></path><path d="M0 490L13.7 490.5C27.3 491 54.7 492 82 495.8C109.3 499.7 136.7 506.3 163.8 513C191 519.7 218 526.3 245.2 527.5C272.3 528.7 299.7 524.3 327 519.7C354.3 515 381.7 510 409 512C436.3 514 463.7 523 491 525.5C518.3 528 545.7 524 573 521.5C600.3 519 627.7 518 654.8 518C682 518 709 519 736.2 518.2C763.3 517.3 790.7 514.7 818 513.5C845.3 512.3 872.7 512.7 886.3 512.8L900 513L900 601L886.3 601C872.7 601 845.3 601 818 601C790.7 601 763.3 601 736.2 601C709 601 682 601 654.8 601C627.7 601 600.3 601 573 601C545.7 601 518.3 601 491 601C463.7 601 436.3 601 409 601C381.7 601 354.3 601 327 601C299.7 601 272.3 601 245.2 601C218 601 191 601 163.8 601C136.7 601 109.3 601 82 601C54.7 601 27.3 601 13.7 601L0 601Z" fill="#2b9dfc"></path><path d="M0 514L13.7 518.3C27.3 522.7 54.7 531.3 82 533.5C109.3 535.7 136.7 531.3 163.8 526.3C191 521.3 218 515.7 245.2 513.2C272.3 510.7 299.7 511.3 327 511.5C354.3 511.7 381.7 511.3 409 517.5C436.3 523.7 463.7 536.3 491 540.2C518.3 544 545.7 539 573 535.8C600.3 532.7 627.7 531.3 654.8 532C682 532.7 709 535.3 736.2 538.7C763.3 542 790.7 546 818 545.5C845.3 545 872.7 540 886.3 537.5L900 535L900 601L886.3 601C872.7 601 845.3 601 818 601C790.7 601 763.3 601 736.2 601C709 601 682 601 654.8 601C627.7 601 600.3 601 573 601C545.7 601 518.3 601 491 601C463.7 601 436.3 601 409 601C381.7 601 354.3 601 327 601C299.7 601 272.3 601 245.2 601C218 601 191 601 163.8 601C136.7 601 109.3 601 82 601C54.7 601 27.3 601 13.7 601L0 601Z" fill="#008cff"></path><path d="M0 558L13.7 557C27.3 556 54.7 554 82 554.3C109.3 554.7 136.7 557.3 163.8 558.2C191 559 218 558 245.2 558.5C272.3 559 299.7 561 327 561C354.3 561 381.7 559 409 555.7C436.3 552.3 463.7 547.7 491 547.2C518.3 546.7 545.7 550.3 573 549.8C600.3 549.3 627.7 544.7 654.8 546.2C682 547.7 709 555.3 736.2 557.2C763.3 559 790.7 555 818 551.3C845.3 547.7 872.7 544.3 886.3 542.7L900 541L900 601L886.3 601C872.7 601 845.3 601 818 601C790.7 601 763.3 601 736.2 601C709 601 682 601 654.8 601C627.7 601 600.3 601 573 601C545.7 601 518.3 601 491 601C463.7 601 436.3 601 409 601C381.7 601 354.3 601 327 601C299.7 601 272.3 601 245.2 601C218 601 191 601 163.8 601C136.7 601 109.3 601 82 601C54.7 601 27.3 601 13.7 601L0 601Z" fill="#007aff"></path><path d="M0 579L13.7 576.2C27.3 573.3 54.7 567.7 82 564.3C109.3 561 136.7 560 163.8 560.2C191 560.3 218 561.7 245.2 562.8C272.3 564 299.7 565 327 567.7C354.3 570.3 381.7 574.7 409 577C436.3 579.3 463.7 579.7 491 577C518.3 574.3 545.7 568.7 573 565.8C600.3 563 627.7 563 654.8 565.5C682 568 709 573 736.2 572.2C763.3 571.3 790.7 564.7 818 563.8C845.3 563 872.7 568 886.3 570.5L900 573L900 601L886.3 601C872.7 601 845.3 601 818 601C790.7 601 763.3 601 736.2 601C709 601 682 601 654.8 601C627.7 601 600.3 601 573 601C545.7 601 518.3 601 491 601C463.7 601 436.3 601 409 601C381.7 601 354.3 601 327 601C299.7 601 272.3 601 245.2 601C218 601 191 601 163.8 601C136.7 601 109.3 601 82 601C54.7 601 27.3 601 13.7 601L0 601Z" fill="#0066ff"></path></svg>